<?xml version="1.0" encoding="UTF-8" standalone="no"?>
<svg
   xmlns:dc="http://purl.org/dc/elements/1.1/"
   xmlns:cc="http://creativecommons.org/ns#"
   xmlns:rdf="http://www.w3.org/1999/02/22-rdf-syntax-ns#"
   xmlns:svg="http://www.w3.org/2000/svg"
   xmlns="http://www.w3.org/2000/svg"
   xmlns:sodipodi="http://sodipodi.sourceforge.net/DTD/sodipodi-0.dtd"
   xmlns:inkscape="http://www.inkscape.org/namespaces/inkscape"
   version="1.0"
   width="400pt"
   height="400pt"
   viewBox="0 0 400 400"
   preserveAspectRatio="xMidYMid meet"
   id="svg3803"
   sodipodi:docname="logo 400 x 400.svg"
   inkscape:version="0.92.4 (5da689c313, 2019-01-14)">
  <defs
     id="defs3807" />
  <sodipodi:namedview
     pagecolor="#ffffff"
     bordercolor="#666666"
     borderopacity="1"
     objecttolerance="10"
     gridtolerance="10"
     guidetolerance="10"
     inkscape:pageopacity="0"
     inkscape:pageshadow="2"
     inkscape:window-width="1920"
     inkscape:window-height="1013"
     id="namedview3805"
     showgrid="false"
     inkscape:zoom="1.394934"
     inkscape:cx="137.04773"
     inkscape:cy="241.13789"
     inkscape:window-x="-9"
     inkscape:window-y="29"
     inkscape:window-maximized="1"
     inkscape:current-layer="svg3803" />
  <metadata
     id="metadata3761">
Created by potrace 1.15, written by Peter Selinger 2001-2017
<rdf:RDF>
  <cc:Work
     rdf:about="">
    <dc:format>image/svg+xml</dc:format>
    <dc:type
       rdf:resource="http://purl.org/dc/dcmitype/StillImage" />
    <dc:title></dc:title>
  </cc:Work>
</rdf:RDF>
</metadata>
  <g
     transform="matrix(0.02509009,0,0,-0.02587695,38.855208,357.49527)"
     id="g3801"
     style="fill:#a20058;fill-opacity:1;stroke:none">
    <path
       d="m 6175,12140 c -540,-31 -1040,-112 -1509,-246 -916,-262 -1666,-651 -2356,-1222 -159,-132 -563,-540 -691,-697 C 1113,9353 775,8704 581,7980 384,7242 346,6411 476,5650 c 30,-177 112,-520 125,-520 4,0 5,-7 2,-17 -4,-11 -3,-14 6,-9 9,6 10,0 6,-21 -5,-22 -4,-25 5,-13 9,12 10,9 5,-13 -4,-20 -2,-27 6,-22 8,5 9,1 4,-15 -5,-17 -4,-21 6,-15 9,6 11,2 7,-13 -4,-14 -2,-20 5,-15 6,4 8,-2 5,-15 -4,-12 -2,-22 4,-22 6,0 8,-6 5,-14 -3,-8 -2,-16 2,-18 4,-2 24,-52 45,-113 102,-300 260,-654 411,-920 90,-160 244,-393 284,-430 20,-19 -7,29 -72,125 -235,349 -430,733 -572,1126 -42,114 -59,183 -36,144 5,-8 30,-73 56,-145 96,-263 253,-602 390,-840 128,-223 377,-581 396,-569 11,7 16,0 -102,164 -111,156 -169,245 -169,260 0,24 19,4 75,-82 87,-133 226,-317 270,-358 46,-43 39,-28 -37,72 -33,43 -57,78 -54,78 2,0 28,-30 57,-67 120,-155 322,-370 454,-486 69,-60 69,-60 25,-11 -117,128 -116,130 5,17 140,-131 313,-278 391,-332 61,-43 50,-32 -116,116 -985,876 -1585,2051 -1726,3378 -21,200 -29,411 -17,427 6,7 13,67 17,133 29,521 120,1002 281,1490 203,618 514,1183 939,1710 574,711 1384,1303 2306,1687 476,199 1060,343 1620,400 166,17 715,16 895,0 718,-67 1325,-238 1970,-552 579,-283 1078,-640 1573,-1125 205,-200 278,-286 132,-155 -346,312 -795,615 -1208,816 -307,149 -721,300 -1047,383 -1142,287 -2416,187 -3583,-281 -206,-83 -493,-219 -647,-308 -235,-135 -565,-364 -639,-443 -22,-23 -33,-33 -26,-22 7,11 -7,0 -31,-25 -25,-25 -87,-81 -139,-125 -234,-197 -634,-626 -787,-845 -37,-53 -67,-110 -58,-110 2,0 30,37 63,83 167,235 445,546 673,753 172,156 197,176 209,172 5,-1 -18,-25 -52,-53 -115,-92 -514,-498 -637,-647 -111,-134 -341,-450 -341,-467 0,-29 23,-5 98,102 155,222 176,247 189,233 3,-3 -8,-22 -24,-43 -81,-104 -217,-309 -239,-360 -30,-68 -23,-62 40,32 61,92 59,78 -2,-22 -109,-176 -282,-516 -269,-529 2,-2 20,28 41,66 20,39 39,70 41,70 5,0 -36,-94 -71,-162 -33,-65 -156,-379 -151,-384 2,-2 39,73 82,168 277,614 596,1080 1055,1538 417,418 858,731 1394,991 673,325 1367,498 2206,550 324,20 741,-2 1090,-56 1529,-237 2851,-1141 3667,-2508 109,-183 292,-550 372,-747 152,-371 282,-829 301,-1055 23,-287 5,-709 -45,-1052 -159,-1076 -704,-2097 -1513,-2837 -174,-158 -295,-257 -520,-426 -99,-74 -179,-137 -177,-138 15,-15 318,202 530,379 136,114 415,388 545,536 272,309 511,659 702,1028 43,83 78,147 78,144 0,-4 -7,-26 -15,-49 -29,-83 -5,-52 48,61 105,223 216,537 287,808 17,63 33,117 37,120 3,3 3,-25 0,-64 -8,-96 6,-67 48,97 33,128 95,486 95,551 0,18 5,39 10,47 47,73 -63,-619 -140,-880 -11,-35 -17,-66 -15,-68 17,-18 78,148 131,358 14,58 27,106 29,108 13,13 -31,-389 -61,-568 -178,-1032 -685,-1988 -1461,-2751 -92,-91 -213,-203 -268,-250 C 9365,1209 8239,737 7025,615 c -262,-26 -461,-35 -790,-36 -349,-1 -389,-14 -76,-25 287,-10 739,16 1076,62 351,47 837,157 1150,259 11,3 0,-5 -25,-19 -173,-96 391,114 698,260 160,77 206,90 132,39 -77,-53 -24,-37 127,39 329,164 766,460 1086,734 9,8 17,13 17,10 0,-10 -245,-214 -370,-309 -280,-211 -715,-476 -995,-605 -29,-14 -35,-20 -21,-22 52,-11 393,148 651,304 88,53 176,105 195,117 l 35,20 -35,-38 c -33,-37 -31,-36 50,20 271,186 492,368 739,610 280,275 462,488 671,786 478,680 783,1446 900,2259 12,80 27,163 35,185 26,78 47,309 54,585 6,233 8,270 19,240 10,-30 11,-21 6,65 -25,453 -135,1029 -288,1500 -19,61 -54,180 -76,265 -263,990 -763,1864 -1475,2575 -200,201 -351,332 -570,498 -878,664 -1897,1049 -3010,1137 -186,15 -584,20 -760,10 z"
       id="path3763"
       style="fill:#a20058;fill-opacity:1"
       inkscape:connector-curvature="0" />
    <path
       d="m 5745,7158 c -182,-267 -188,-282 -142,-380 48,-105 135,-166 252,-176 l 62,-5 -75,-110 c -90,-134 -108,-174 -134,-297 -26,-124 -20,-225 27,-472 19,-103 35,-193 35,-201 0,-11 -22,-16 -90,-21 -96,-8 -139,-27 -166,-76 -24,-43 -223,-460 -219,-460 1,0 27,11 58,25 98,45 175,56 423,62 l 232,5 67,186 c 56,155 66,193 61,226 -3,23 -39,128 -81,235 -96,246 -113,329 -96,455 16,115 40,182 90,260 47,72 157,184 187,192 12,3 142,4 290,2 312,-5 341,-11 423,-84 57,-52 95,-124 117,-222 10,-48 20,-243 34,-682 11,-338 20,-630 20,-649 0,-29 2,-32 15,-21 8,7 63,80 121,162 l 105,149 -4,652 c -3,420 -8,672 -15,707 -45,221 -127,336 -280,393 -54,20 -79,22 -527,27 -465,5 -470,5 -513,28 -83,44 -128,144 -121,265 2,31 4,57 3,57 0,0 -72,-104 -159,-232 z"
       id="path3765"
       style="fill:#a20058;fill-opacity:1"
       inkscape:connector-curvature="0" />
    <path
       d="m 4351,7132 c -172,-277 -182,-300 -133,-348 16,-16 103,-74 193,-129 236,-143 277,-186 298,-312 6,-32 18,-359 26,-728 9,-368 18,-671 20,-673 13,-13 41,22 133,171 l 103,165 -3,758 c -3,758 -3,759 -25,800 -28,52 -25,50 -231,179 -211,132 -217,139 -217,267 0,47 -2,89 -5,91 -3,3 -74,-105 -159,-241 z"
       id="path3767"
       style="fill:#a20058;fill-opacity:1"
       inkscape:connector-curvature="0" />
    <path
       d="m 7917,7161 c -144,-229 -167,-273 -167,-317 0,-62 23,-85 216,-209 196,-125 224,-152 242,-232 25,-112 -30,-222 -199,-398 -73,-76 -99,-109 -90,-114 7,-5 52,-14 101,-21 l 88,-13 35,39 c 160,178 271,323 314,409 89,177 113,356 61,466 -39,85 -85,128 -259,244 -110,73 -164,116 -176,138 -13,24 -18,56 -18,124 -1,51 -3,94 -6,97 -2,3 -66,-93 -142,-213 z"
       id="path3769"
       style="fill:#a20058;fill-opacity:1"
       inkscape:connector-curvature="0" />
    <path
       d="m 2616,7110 c -135,-210 -150,-237 -153,-284 -6,-72 17,-109 112,-185 44,-35 79,-67 78,-72 -3,-11 -463,-1030 -473,-1048 -5,-9 -24,20 -58,85 -108,211 -142,345 -142,554 0,148 11,213 45,280 10,19 19,37 21,39 2,2 36,-18 74,-44 42,-29 74,-45 79,-39 5,5 44,66 86,137 81,133 95,176 81,251 -10,55 -47,90 -205,196 -223,149 -251,182 -251,298 0,23 -3,42 -7,42 -13,-1 -264,-418 -275,-456 -20,-75 13,-126 142,-215 l 89,-62 -28,-56 c -29,-57 -65,-161 -75,-216 -3,-16 -10,-78 -15,-137 -15,-176 0,-259 129,-743 48,-181 91,-356 94,-388 6,-48 11,-57 24,-53 34,10 294,36 607,61 176,14 352,33 392,41 148,31 241,101 302,228 16,33 71,162 121,286 144,351 227,503 444,809 57,80 109,163 116,184 7,22 10,67 8,102 -5,81 -22,103 -181,230 -162,130 -172,146 -171,283 1,71 -2,100 -9,93 -23,-23 -308,-429 -324,-461 -23,-48 -22,-118 3,-161 11,-19 71,-73 133,-121 62,-48 121,-98 132,-112 33,-42 24,-76 -36,-152 -18,-22 -119,-168 -223,-325 -237,-355 -302,-421 -452,-457 -45,-11 -439,-46 -445,-40 -5,6 428,968 437,968 4,0 36,-20 70,-45 34,-25 64,-45 68,-45 3,0 25,33 49,73 149,243 141,227 141,282 0,73 -20,97 -190,234 -79,64 -158,135 -174,158 -26,38 -30,53 -35,139 l -6,95 z"
       id="path3771"
       style="fill:#a20058;fill-opacity:1"
       inkscape:connector-curvature="0" />
    <path
       d="m 9040,7140 c -85,-105 -161,-203 -169,-218 -23,-41 -19,-138 8,-190 19,-38 168,-191 274,-282 20,-18 37,-38 37,-46 0,-7 -20,-42 -45,-77 -52,-75 -134,-237 -163,-322 -72,-212 -88,-501 -51,-917 11,-120 14,-138 30,-138 12,0 52,61 132,199 l 116,198 -6,189 c -5,162 -3,206 15,309 56,325 161,508 372,652 131,89 206,103 381,73 80,-13 147,-31 187,-50 71,-33 171,-123 209,-188 84,-143 127,-453 88,-637 -22,-104 -52,-155 -105,-183 l -45,-24 -295,7 c -333,7 -370,2 -427,-57 -25,-26 -283,-430 -283,-443 0,-2 33,5 73,15 167,42 213,45 710,43 262,-2 477,0 477,2 0,3 24,112 54,243 108,468 125,735 71,1052 -53,309 -171,500 -395,642 -75,47 -262,124 -334,137 -33,6 -60,10 -61,8 -1,-1 -7,-29 -13,-61 -26,-130 -91,-221 -226,-315 l -73,-50 -160,162 c -193,196 -207,219 -210,357 -1,52 -6,96 -10,97 -4,1 -78,-83 -163,-187 z"
       id="path3773"
       style="fill:#a20058;fill-opacity:1"
       inkscape:connector-curvature="0" />
    <path
       d="m 4410,6149 c -32,-13 -78,-56 -96,-91 -45,-87 13,-201 117,-229 40,-11 53,-10 93,5 105,40 145,157 86,254 -35,57 -134,87 -200,61 z"
       id="path3775"
       style="fill:#a20058;fill-opacity:1"
       inkscape:connector-curvature="0" />
    <path
       d="m 2912,2742 c -71,-29 -83,-51 -58,-100 20,-40 20,-42 -5,-42 -40,0 -61,-23 -155,-167 -78,-119 -93,-148 -82,-158 7,-7 82,-56 166,-109 l 154,-95 58,29 c 54,27 62,37 136,152 118,186 131,220 100,263 -7,11 -64,51 -125,90 -115,72 -130,89 -117,140 8,30 8,30 -72,-3 z m 121,-232 c 103,-66 111,-84 69,-164 -40,-76 -94,-159 -107,-163 -9,-3 -237,135 -259,157 -10,10 69,146 112,193 41,44 90,38 185,-23 z"
       id="path3777"
       style="fill:#a20058;fill-opacity:1"
       inkscape:connector-curvature="0" />
    <path
       d="m 3428,2439 c -41,-24 -68,-47 -68,-57 0,-9 14,-45 32,-78 41,-79 33,-104 -47,-141 -46,-20 -54,-27 -44,-39 16,-19 30,-18 92,10 69,30 123,78 137,122 11,33 9,41 -19,95 -33,63 -39,97 -19,117 20,20 6,14 -64,-29 z"
       id="path3779"
       style="fill:#a20058;fill-opacity:1"
       inkscape:connector-curvature="0" />
    <path
       d="m 8806,2452 c -9,-15 -18,-123 -12,-145 5,-21 16,-26 68,-37 80,-15 90,-23 76,-58 -6,-17 -7,-66 -3,-130 l 6,-104 -50,29 c -78,43 -153,96 -165,115 -8,14 -6,22 12,38 14,13 22,33 22,53 0,53 -19,69 -91,78 -52,6 -67,12 -85,34 l -21,27 -11,-72 c -6,-40 -8,-79 -5,-87 7,-19 45,-33 89,-33 34,0 34,-1 34,-44 0,-58 20,-81 124,-145 47,-29 86,-56 86,-59 0,-4 -20,-20 -45,-35 -71,-45 -86,-71 -79,-131 4,-28 8,-53 11,-55 2,-3 18,9 36,25 17,17 73,61 124,97 50,37 94,75 97,83 10,26 7,84 -9,174 -18,102 -19,165 -3,224 18,67 -2,90 -88,106 -45,9 -76,21 -91,36 -12,12 -25,20 -27,16 z"
       id="path3781"
       style="fill:#a20058;fill-opacity:1"
       inkscape:connector-curvature="0" />
    <path
       d="m 3711,2295 c -66,-49 -73,-67 -41,-108 l 20,-25 -39,-38 c -49,-50 -76,-124 -92,-249 -17,-143 -18,-140 11,-143 14,-2 73,-19 132,-38 59,-19 118,-34 132,-34 32,0 136,71 186,127 45,51 98,155 107,207 6,41 -5,63 -76,148 l -56,67 -35,-33 c -19,-17 -57,-50 -85,-71 -57,-45 -74,-64 -75,-83 0,-16 38,-72 49,-72 4,0 13,18 20,40 11,37 45,80 62,80 4,0 24,-15 43,-34 31,-28 36,-40 36,-77 0,-54 -38,-138 -75,-167 -38,-30 -77,-28 -186,12 -106,38 -114,48 -106,137 5,59 32,122 65,152 17,16 21,16 32,2 7,-8 16,-15 21,-15 18,0 79,63 79,83 0,11 -16,44 -36,73 -26,38 -35,60 -32,78 3,14 4,26 3,26 -2,0 -30,-20 -64,-45 z"
       id="path3783"
       style="fill:#a20058;fill-opacity:1"
       inkscape:connector-curvature="0" />
    <path
       d="m 8262,2184 c -22,-108 -17,-116 72,-129 85,-13 107,-63 66,-154 l -20,-43 22,6 c 13,3 26,6 30,6 3,0 16,30 28,66 16,48 21,82 18,125 -5,74 -24,95 -104,115 -38,10 -66,24 -80,40 l -21,25 z"
       id="path3785"
       style="fill:#a20058;fill-opacity:1"
       inkscape:connector-curvature="0" />
    <path
       d="m 4328,2079 c -32,-28 -58,-58 -58,-68 0,-9 20,-41 45,-70 25,-29 45,-57 45,-62 0,-27 -35,-71 -76,-95 -46,-27 -46,-27 -23,-40 31,-16 64,2 140,76 81,80 83,122 13,203 -29,35 -35,48 -30,75 2,17 4,32 3,32 -1,0 -28,-23 -59,-51 z"
       id="path3787"
       style="fill:#a20058;fill-opacity:1"
       inkscape:connector-curvature="0" />
    <path
       d="m 7971,2065 c -16,-69 -9,-91 35,-107 22,-8 33,-17 29,-25 -2,-8 -12,-38 -21,-68 -8,-30 -18,-55 -21,-55 -3,0 -18,8 -33,17 -31,18 -40,38 -40,98 0,53 -7,61 -60,75 -25,6 -53,13 -63,16 -9,3 -23,17 -31,31 -13,25 -14,24 -31,-46 -9,-39 -15,-78 -12,-86 4,-8 32,-21 64,-30 115,-32 123,-40 123,-120 0,-17 18,-32 85,-70 47,-26 83,-51 80,-55 -2,-4 -38,-17 -79,-29 -41,-12 -79,-28 -84,-34 -6,-7 -18,-39 -27,-72 -10,-33 -20,-66 -23,-73 -2,-7 12,-2 32,12 20,14 51,29 69,35 18,5 78,24 135,41 113,34 117,38 128,124 l 6,41 -91,48 c -50,27 -93,52 -96,56 -2,5 5,36 16,70 21,60 47,88 74,77 24,-9 36,93 13,112 -7,5 -38,17 -69,26 -31,9 -62,23 -69,31 -20,24 -26,18 -39,-40 z"
       id="path3789"
       style="fill:#a20058;fill-opacity:1"
       inkscape:connector-curvature="0" />
    <path
       d="m 4618,1974 c -27,-31 -48,-60 -48,-64 0,-5 11,-22 25,-38 l 25,-30 -28,-48 c -27,-48 -27,-51 -25,-212 0,-90 3,-166 6,-168 2,-3 68,-12 146,-20 182,-20 183,-19 262,98 33,48 95,126 139,173 44,46 80,90 80,98 0,7 -18,38 -40,68 -30,40 -39,60 -35,77 5,20 3,22 -13,13 -28,-15 -102,-99 -102,-115 0,-9 14,-31 30,-49 17,-19 30,-41 30,-49 0,-20 -170,-185 -205,-198 -26,-10 -155,-5 -155,6 0,4 149,215 161,228 5,5 15,4 24,-4 14,-11 21,-8 50,20 19,19 35,42 35,53 0,10 -18,40 -40,66 -27,31 -40,57 -40,76 v 29 l -50,-49 c -53,-52 -64,-91 -35,-115 8,-7 15,-17 15,-22 0,-14 -172,-258 -181,-258 -4,0 -12,29 -18,64 -12,69 -2,147 24,182 12,18 14,18 32,2 18,-17 20,-16 51,24 18,23 32,48 32,55 0,8 -22,38 -49,66 -27,29 -51,62 -53,75 -3,21 -8,17 -50,-34 z"
       id="path3791"
       style="fill:#a20058;fill-opacity:1"
       inkscape:connector-curvature="0" />
    <path
       d="m 7391,1921 c -13,-38 -21,-76 -18,-83 2,-7 35,-24 71,-37 39,-13 73,-32 80,-45 8,-11 33,-103 57,-204 24,-100 46,-179 49,-175 4,5 14,26 23,49 15,39 14,47 -29,243 -24,112 -48,209 -54,217 -7,7 -35,20 -63,30 -63,20 -77,31 -77,55 0,38 -16,17 -39,-50 z"
       id="path3793"
       style="fill:#a20058;fill-opacity:1"
       inkscape:connector-curvature="0" />
    <path
       d="m 5353,1880 c -49,-66 -54,-100 -19,-134 19,-20 38,-25 102,-31 150,-13 174,-26 195,-108 14,-59 0,-141 -33,-182 l -21,-27 -143,7 -143,7 -35,-55 c -20,-31 -36,-57 -36,-59 0,-2 28,-3 63,-3 34,0 109,-4 167,-9 105,-8 106,-8 137,18 45,38 98,122 117,185 31,104 16,233 -32,290 -25,29 -34,32 -127,42 -113,12 -142,28 -147,84 l -3,33 z"
       id="path3795"
       style="fill:#a20058;fill-opacity:1"
       inkscape:connector-curvature="0" />
    <path
       d="m 6853,1856 c -39,-78 -41,-99 -11,-120 27,-19 70,-20 173,-5 95,14 120,5 134,-48 18,-69 34,-224 25,-233 -5,-4 -60,-16 -123,-25 -63,-9 -122,-20 -132,-26 -10,-5 -27,-34 -38,-64 -25,-67 -25,-69 -3,-60 14,5 371,64 394,65 4,0 21,27 38,60 l 30,60 h -34 c -18,0 -39,6 -45,13 -6,8 -15,78 -21,158 -14,199 -15,206 -51,224 -26,14 -40,14 -144,-1 -109,-17 -115,-17 -134,0 -11,10 -21,29 -23,43 -2,21 -9,14 -35,-41 z"
       id="path3797"
       style="fill:#a20058;fill-opacity:1"
       inkscape:connector-curvature="0" />
    <path
       d="m 5933,1818 c -24,-35 -43,-71 -43,-81 0,-24 44,-67 69,-67 19,0 18,-4 -11,-57 -27,-52 -29,-64 -24,-118 3,-33 8,-75 12,-92 6,-30 4,-33 -19,-33 -13,0 -30,-7 -37,-15 -15,-18 -62,-117 -57,-121 1,-2 20,1 42,6 22,5 63,10 91,10 h 51 l 18,53 18,52 -27,73 c -38,106 -33,157 22,215 24,25 31,27 112,27 140,0 145,-9 156,-273 l 6,-177 29,37 28,38 1,193 c 0,290 -4,295 -214,300 -155,4 -172,10 -178,63 -3,29 -4,28 -45,-33 z"
       id="path3799"
       style="fill:#a20058;fill-opacity:1"
       inkscape:connector-curvature="0" />
  </g>
</svg>
